<svg width="1033" height="268" fill="none" xmlns="http://www.w3.org/2000/svg"><g clip-path="url(#a)"><path fill-rule="evenodd" clip-rule="evenodd" d="M232 67 116 0 0 67v134l116 67 116-67V67ZM212 79 116 23.6 20.2 79v110.6L116 245l95.9-55.3V79Z" fill="#4A3FFB"/><path fill-rule="evenodd" clip-rule="evenodd" d="M205.3 82.5 116 31 26.7 82.5v103.1l89.3 51.6 89.3-51.6v-67.1H146V83l59.2 34.3V82.5ZM116 149.1v52.7l59-33.7v-19h-59ZM56.9 99.8V168l29 16.7v-36h30v-29.7h-30V83.6l-29 16.2Z" fill="#4A3FFB"/><mask id="b" style="mask-type:alpha" maskUnits="userSpaceOnUse" x="-1" y="0" width="234" height="268"><path fill-rule="evenodd" clip-rule="evenodd" d="M232 67 116 0 0 67v134l116 67 116-67V67ZM212 79 116 23.6 20.2 79v110.6L116 245l95.9-55.3V79Z" fill="#000"/><path fill-rule="evenodd" clip-rule="evenodd" d="M205.3 82.5 116 31 26.7 82.5v103.1l89.3 51.6 89.3-51.6v-67.1H146V83l59.2 34.3V82.5ZM116 149.1v52.7l59-33.7v-19h-59ZM56.9 99.8V168l29 16.7v-36h30v-29.7h-30V83.6l-29 16.2Z" fill="#000"/></mask><g mask="url(#b)"><path fill="#182282" d="M116-.3h116.2V268H116z"/></g><path d="M348.2 148.7a36 36 0 0 1-12.1 25.9 42.5 42.5 0 0 1-28.8 9.4c-13.1 0-23.4-4.4-30.9-13.1a54.3 54.3 0 0 1-11.2-36.2v-6.3a61 61 0 0 1 5.2-25.8 38.6 38.6 0 0 1 37.1-23.2c11.8 0 21.2 3.2 28.4 9.5a38.7 38.7 0 0 1 12.5 26.5h-21c-.5-6.6-2.4-11.4-5.5-14.3-3.2-3-8-4.5-14.4-4.5-7 0-12.2 2.6-15.7 7.6-3.4 5-5.2 12.7-5.3 23.3v7.6c0 11 1.6 19 5 24.2 3.3 5 8.6 7.6 15.8 7.6 6.4 0 11.3-1.5 14.4-4.4 3.2-3 5-7.6 5.6-13.8h21ZM383 165.8h44.5v16.8H362V80.8h21v85ZM459.6 182.6h-20.3V107h20.3v75.6Zm-21.5-95.2c0-3 1-5.5 3-7.5 2.1-2 4.9-2.9 8.4-2.9 3.4 0 6.2 1 8.2 3 2 1.9 3.1 4.4 3.1 7.4s-1 5.6-3.1 7.6-4.8 2.9-8.2 2.9c-3.4 0-6.2-1-8.3-3-2-1.9-3-4.4-3-7.5ZM538.9 138.5h-40.3v27.3H546v16.8h-68.2V80.8h68v17h-47v24.3h40.2v16.4ZM641 182.6h-21l-40.8-67v67h-21V80.8h21L620 148V81H641v101.7ZM733.8 97.8h-31.1v84.8h-21V97.8h-30.8v-17h83v17ZM797.5 156c0-4-1.4-7-4.2-9.2a53.6 53.6 0 0 0-15-6.7 109 109 0 0 1-17.3-7c-11.6-6.2-17.4-14.6-17.4-25.2 0-5.5 1.6-10.4 4.6-14.7 3.2-4.3 7.6-7.7 13.4-10.1a50.5 50.5 0 0 1 19.6-3.7c7.2 0 13.7 1.4 19.4 4 5.7 2.6 10.1 6.3 13.2 11.1a29 29 0 0 1 4.8 16.4h-21c0-4.7-1.5-8.3-4.4-10.8-3-2.6-7-4-12.4-4-5.1 0-9 1.1-12 3.3-2.8 2.2-4.2 5-4.2 8.6 0 3.3 1.7 6 5 8.3 3.3 2.2 8.2 4.3 14.7 6.3 12 3.6 20.6 8 26.1 13.3 5.5 5.3 8.2 12 8.2 19.9 0 8.8-3.4 15.7-10 20.7a44 44 0 0 1-27 7.5c-7.8 0-14.9-1.4-21.3-4.3a30.3 30.3 0 0 1-19.8-29.1h21c0 11.2 6.7 16.8 20.2 16.8 5 0 8.8-1 11.6-3a10 10 0 0 0 4.2-8.5ZM852 151.4h-16.7l-2.4-70.6h21.5l-2.3 70.6Zm-8.3 11c3.4 0 6.1 1 8.2 3 2 2 3.1 4.6 3.1 7.7 0 3-1 5.6-3.1 7.6-2 2-4.8 3-8.2 3-3.4 0-6.1-1-8.2-3-2-2-3-4.5-3-7.6 0-3 1-5.6 3-7.6 2.1-2 4.8-3.1 8.2-3.1ZM871.9 182.6V80.8h31.3c9 0 17 2 24 6.1 7 4 12.6 9.8 16.5 17.2 4 7.4 6 15.9 6 25.3v4.7c0 9.5-2 17.9-5.9 25.2-3.9 7.4-9.3 13.1-16.4 17.2-7.1 4-15.1 6-24 6.1h-31.5Zm21-84.8v68h10c8.3 0 14.5-2.7 18.9-8 4.3-5.4 6.5-13.1 6.6-23v-5.5c0-10.3-2.1-18.1-6.4-23.4-4.3-5.4-10.6-8-18.8-8h-10.4ZM1026.2 138.5H986v27.3h47.2v16.8H965V80.8h68v17h-47v24.3h40.2v16.4Z" fill="#000"/></g><defs><clipPath id="a"><path fill="#fff" d="M0 0h1033v268H0z"/></clipPath></defs></svg>