<?xml version="1.0" encoding="utf-8"?>
<!-- Generator: Adobe Illustrator 24.2.0, SVG Export Plug-In . SVG Version: 6.00 Build 0)  -->
<svg version="1.1" id="Layer_1" xmlns="http://www.w3.org/2000/svg" xmlns:xlink="http://www.w3.org/1999/xlink" x="0px" y="0px"
	 viewBox="0 0 1000 1000" style="enable-background:new 0 0 1000 1000;" xml:space="preserve">
<style type="text/css">
	.st0{fill:#9B4A94;}
	.st1{fill:#692876;}
	.st2{fill:#823185;}
	.st3{fill:#FFFFFF;}
</style>
<g>
	<path id="XMLID_3_" class="st0" d="M821.6,351c0-12.2-2.6-22.9-7.9-32.1c-5.2-9.1-12.9-16.7-23.3-22.7
		c-85.6-49.4-171.4-98.6-257-148.1c-23.1-13.3-45.5-12.8-68.4,0.7C431,169,260.4,266.8,209.5,296.2c-20.9,12.1-31.1,30.7-31.1,54.8
		c0,99.3,0,198.6,0,297.9c0,11.9,2.5,22.4,7.5,31.5c5.2,9.3,13,17.1,23.6,23.3C260.3,733.2,431,831,465.1,851.1
		c22.9,13.5,45.3,14,68.4,0.7c85.6-49.4,171.4-98.7,257-148.1c10.6-6.1,18.5-14,23.6-23.3c5-9.1,7.5-19.6,7.5-31.5
		C821.7,648.9,821.7,450.4,821.6,351"/>
	<path id="XMLID_4_" class="st1" d="M501,499L185.8,680.5c5.2,9.3,13,17.1,23.6,23.3C260.3,733.2,431,831,465.1,851.1
		c22.9,13.5,45.3,14,68.4,0.7c85.6-49.4,171.4-98.7,257-148.1c10.6-6.1,18.5-14,23.6-23.3L501,499"/>
	<path id="XMLID_5_" class="st1" d="M407.6,552.8c18.3,32,52.8,53.6,92.4,53.6c39.8,0,74.5-21.9,92.7-54.2L501,499L407.6,552.8"/>
	<path id="XMLID_6_" class="st2" d="M821.6,351c0-12.2-2.6-22.9-7.9-32.1L501,499l313.2,181.4c5-9.1,7.5-19.6,7.5-31.5
		C821.7,648.9,821.7,450.4,821.6,351"/>
	<path id="XMLID_9_" class="st3" d="M592.7,552.2c-18.2,32.4-52.9,54.2-92.7,54.2c-39.5,0-74-21.6-92.4-53.6
		c-8.9-15.6-14-33.6-14-52.8c0-58.8,47.6-106.4,106.4-106.4c39.3,0,73.6,21.3,92,53l93-53.5c-37-63.8-106-106.7-185-106.7
		c-118,0-213.6,95.7-213.6,213.6c0,38.7,10.3,75,28.3,106.3c36.9,64.1,106.1,107.3,185.4,107.3c79.4,0,148.7-43.4,185.6-107.7
		L592.7,552.2"/>
	<g id="XMLID_32_">
		<rect id="XMLID_1_" x="689.1" y="449.5" class="st3" width="21.1" height="102.4"/>
		<rect id="XMLID_30_" x="736" y="449.5" class="st3" width="21.1" height="102.4"/>
		
			<rect id="XMLID_31_" x="712.5" y="426" transform="matrix(-1.836970e-16 1 -1 -1.836970e-16 1200.2954 -245.8598)" class="st3" width="21.1" height="102.4"/>
		
			<rect id="XMLID_23_" x="712.5" y="472.9" transform="matrix(-1.836970e-16 1 -1 -1.836970e-16 1247.1792 -198.9759)" class="st3" width="21.1" height="102.4"/>
	</g>
</g>
</svg>
