<svg id="Layer_1" data-name="Layer 1" xmlns="http://www.w3.org/2000/svg" viewBox="0 0 280 300"><defs><style>.cls-1{fill:#672a7a;}.cls-2{fill:#fff;}</style></defs><rect class="cls-1" x="66.32" y="76.32" width="147.36" height="147.36"/><path class="cls-2" d="M161.15,132.63a3.19,3.19,0,0,0,1.13-2.51,3,3,0,0,0-.9-2.26,7,7,0,0,0-2.28-1.37,7.16,7.16,0,0,1-1.85-1,1.67,1.67,0,0,1-.49-1.27,1.56,1.56,0,0,1,.59-1.25,2.41,2.41,0,0,1,1.57-.48,4.69,4.69,0,0,1,2.8.88v-2a5.82,5.82,0,0,0-2.64-.58,4.7,4.7,0,0,0-3.13,1,3.41,3.41,0,0,0-.43,4.78,6.62,6.62,0,0,0,2.2,1.4,7.91,7.91,0,0,1,2,1.13,1.52,1.52,0,0,1,.52,1.19c0,1.14-.78,1.72-2.34,1.72a5,5,0,0,1-3.21-1.18V133a6,6,0,0,0,3.06.74A5,5,0,0,0,161.15,132.63Z"/><path class="cls-2" d="M179.71,133.42h2V122.76h2.89v-1.67h-2.89v-1.9c0-1.74.68-2.61,2.06-2.61a2.71,2.71,0,0,1,1.32.32v-1.78a3.9,3.9,0,0,0-1.43-.22,3.83,3.83,0,0,0-2.67,1,4.12,4.12,0,0,0-1.26,3.19v2h-2.09v1.67h2.09Z"/><path class="cls-2" d="M116.8,118a1.28,1.28,0,0,0,1.3-1.29,1.24,1.24,0,0,0-.38-.91,1.34,1.34,0,0,0-1.83,0,1.33,1.33,0,0,0,0,1.84A1.28,1.28,0,0,0,116.8,118Z"/><path class="cls-2" d="M126.69,133.71a6.3,6.3,0,0,0,3.37-.86V131a4.93,4.93,0,0,1-3,1.06,3.93,3.93,0,0,1-3-1.25,4.88,4.88,0,0,1-1.14-3.41,5.09,5.09,0,0,1,1.24-3.58,4,4,0,0,1,3.07-1.32,5,5,0,0,1,2.94,1v-2a6.35,6.35,0,0,0-2.85-.62,6.1,6.1,0,0,0-4.68,1.86,6.91,6.91,0,0,0-1.74,4.9,6.22,6.22,0,0,0,1.59,4.41A5.56,5.56,0,0,0,126.69,133.71Z"/><path class="cls-2" d="M196.86,122.08h.38c.27,0,.52.24.75.75l.45,1h.71l-.54-1.11c-.23-.46-.46-.72-.7-.77v0a1.46,1.46,0,0,0,.79-.41,1.05,1.05,0,0,0,.28-.73,1,1,0,0,0-.35-.79,1.72,1.72,0,0,0-1.18-.35h-1.18v4.18h.59Zm0-1.93h.52a1.21,1.21,0,0,1,.77.19.64.64,0,0,1,.2.52q0,.72-.87.72h-.62Z"/><path class="cls-2" d="M187.77,130.05q0,3.64,3.23,3.64a3.65,3.65,0,0,0,1.85-.4v-1.68a2.11,2.11,0,0,1-1.27.4,1.71,1.71,0,0,1-1.41-.53,2.84,2.84,0,0,1-.42-1.76v-7h3.1v-1.67h-3.1v-3.65l-2,.64v3h-2.11v1.67h2.11Z"/><path class="cls-2" d="M197.55,125a3.25,3.25,0,0,0,2.35-.94,3.16,3.16,0,0,0,.95-2.33,3.1,3.1,0,0,0-1-2.33,3.21,3.21,0,0,0-2.32-.9,3.23,3.23,0,0,0-3.3,3.26,3.11,3.11,0,0,0,.93,2.32A3.21,3.21,0,0,0,197.55,125Zm-2.07-5.31a2.8,2.8,0,0,1,2.08-.83,2.84,2.84,0,0,1,2.9,2.89,2.89,2.89,0,0,1-2.9,2.92,2.94,2.94,0,0,1-2.08-5Z"/><rect class="cls-2" x="115.79" y="121.09" width="1.97" height="12.33"/><path class="cls-2" d="M146.36,133.71a5.84,5.84,0,0,0,4.48-1.78,6.66,6.66,0,0,0,1.66-4.72A6.81,6.81,0,0,0,151,122.5a5.55,5.55,0,0,0-4.31-1.71,6.18,6.18,0,0,0-4.48,1.63,6.65,6.65,0,0,0-1.8,5,6.43,6.43,0,0,0,1.58,4.53A5.68,5.68,0,0,0,146.36,133.71Zm-2.8-10a3.81,3.81,0,0,1,2.94-1.21,3.66,3.66,0,0,1,2.91,1.19,6.6,6.6,0,0,1,.06,7.11,3.6,3.6,0,0,1-3,1.26,3.78,3.78,0,0,1-3-1.25,5,5,0,0,1-1.12-3.46A5.22,5.22,0,0,1,143.56,123.68Z"/><path class="cls-2" d="M174.7,131.93a6.62,6.62,0,0,0,1.67-4.72,6.77,6.77,0,0,0-1.55-4.71,5.51,5.51,0,0,0-4.3-1.71,6.17,6.17,0,0,0-4.48,1.63,6.66,6.66,0,0,0-1.81,5,6.39,6.39,0,0,0,1.59,4.53,5.67,5.67,0,0,0,4.41,1.78A5.79,5.79,0,0,0,174.7,131.93Zm-8.44-4.61a5.22,5.22,0,0,1,1.16-3.64,3.84,3.84,0,0,1,3-1.21,3.65,3.65,0,0,1,2.9,1.19,6.62,6.62,0,0,1,.07,7.11,3.6,3.6,0,0,1-3,1.26,3.82,3.82,0,0,1-3-1.25A5,5,0,0,1,166.26,127.32Z"/><polygon class="cls-2" points="145.69 163.76 162.04 163.76 162.04 158.96 145.69 158.96 145.69 143.9 163.34 143.9 163.34 139.11 140.39 139.11 140.39 184.37 164.38 184.37 164.38 179.57 145.69 179.57 145.69 163.76"/><polygon class="cls-2" points="169.36 143.9 182.42 143.9 182.42 184.37 187.72 184.37 187.72 143.9 200.76 143.9 200.76 139.11 169.36 139.11 169.36 143.9"/><path class="cls-2" d="M82.62,178a3.3,3.3,0,0,0-2.46,1,3.65,3.65,0,0,0,0,5,3.28,3.28,0,0,0,2.46,1.06A3.45,3.45,0,0,0,85.15,184a3.55,3.55,0,0,0,0-5A3.41,3.41,0,0,0,82.62,178Z"/><path class="cls-2" d="M136.41,121.55a4.31,4.31,0,0,0-1.34,2.08h0v-2.54h-2v12.33h2v-6.29a5.41,5.41,0,0,1,.93-3.36,2.46,2.46,0,0,1,2-1.08,2.43,2.43,0,0,1,1.51.4v-2a3.24,3.24,0,0,0-1.18-.17A2.94,2.94,0,0,0,136.41,121.55Z"/><polygon class="cls-2" points="95.78 118.48 95.82 118.48 102.24 133.42 103.22 133.42 109.63 118.48 109.67 118.48 109.51 133.42 111.53 133.42 111.53 116.16 109 116.16 102.76 130.26 102.67 130.26 96.59 116.16 93.92 116.16 93.92 133.42 95.88 133.42 95.78 118.48"/><polygon class="cls-2" points="125.09 177.33 100.8 139.11 93.91 139.11 93.91 184.37 99.22 184.37 99.22 145.54 123.93 184.37 130.37 184.37 130.37 139.11 125.09 139.11 125.09 177.33"/></svg>